<svg xmlns="http://www.w3.org/2000/svg" viewBox="0 0 240 160" role="img" aria-label="Beinbeuger"><title>Beinbeuger</title><path d="M12 141H228" stroke="#E1E6E3" stroke-width="2" stroke-linecap="round"/><g transform="translate(62.0 141) scale(0.8) translate(-120 -141)"><path d="M46.0 108.0 L152.0 108.0" stroke="#B4BCB7" stroke-width="5" fill="none" stroke-linecap="round" stroke-linejoin="round"/><path d="M56.0 108.0 L56.0 140.0" stroke="#B4BCB7" stroke-width="4" fill="none" stroke-linecap="round" stroke-linejoin="round"/><path d="M142.0 108.0 L142.0 140.0" stroke="#B4BCB7" stroke-width="4" fill="none" stroke-linecap="round" stroke-linejoin="round"/><path d="M104.0 100.0 L78.7 94.0 L55.0 102.0 L54.0 110.0" stroke="#B4BCB7" stroke-width="6" fill="none" stroke-linecap="round" stroke-linejoin="round"/><path d="M104.0 100.0 L140.0 100.0" stroke="#B4BCB7" stroke-width="7.5" fill="none" stroke-linecap="round" stroke-linejoin="round"/><path d="M140.0 100.0 L160.8 97.2 L152.0 114.0" stroke="#B4BCB7" stroke-width="6" fill="none" stroke-linecap="round" stroke-linejoin="round"/><circle cx="151.0" cy="100.0" r="7.5" fill="#B4BCB7"/><circle cx="56.0" cy="94.0" r="5" fill="#B4BCB7"/></g><path d="M117 94l6 6-6 6" stroke="#636B67" stroke-width="2" fill="none" stroke-linecap="round" stroke-linejoin="round"/><g transform="translate(178.0 141) scale(0.8) translate(-120 -141)"><path d="M46.0 108.0 L152.0 108.0" stroke="#636B67" stroke-width="5" fill="none" stroke-linecap="round" stroke-linejoin="round"/><path d="M56.0 108.0 L56.0 140.0" stroke="#636B67" stroke-width="4" fill="none" stroke-linecap="round" stroke-linejoin="round"/><path d="M142.0 108.0 L142.0 140.0" stroke="#636B67" stroke-width="4" fill="none" stroke-linecap="round" stroke-linejoin="round"/><path d="M104.0 100.0 L78.0 100.9 L80.0 76.0 L72.0 72.0" stroke="#18201C" stroke-width="6" fill="none" stroke-linecap="round" stroke-linejoin="round"/><path d="M104.0 100.0 L140.0 100.0" stroke="#18201C" stroke-width="7.5" fill="none" stroke-linecap="round" stroke-linejoin="round"/><path d="M140.0 100.0 L160.8 97.2 L152.0 114.0" stroke="#18201C" stroke-width="6" fill="none" stroke-linecap="round" stroke-linejoin="round"/><circle cx="151.0" cy="100.0" r="7.5" fill="#18201C"/><circle cx="74.0" cy="82.0" r="5" fill="#636B67"/></g></svg>