<svg xmlns="http://www.w3.org/2000/svg" viewBox="0 0 240 160" role="img" aria-label="Butterfly"><title>Butterfly</title><path d="M12 141H228" stroke="#E1E6E3" stroke-width="2" stroke-linecap="round"/><g transform="translate(62.0 141) scale(0.8) translate(-120 -141)"><path d="M98.0 96.0 L142.0 96.0" stroke="#B4BCB7" stroke-width="5" fill="none" stroke-linecap="round" stroke-linejoin="round"/><path d="M120.0 96.0 L120.0 140.0" stroke="#B4BCB7" stroke-width="4" fill="none" stroke-linecap="round" stroke-linejoin="round"/><path d="M113.0 86.0 L106.1 111.1 L108.0 136.0 L102.0 137.0" stroke="#B4BCB7" stroke-width="6" fill="none" stroke-linecap="round" stroke-linejoin="round"/><path d="M127.0 86.0 L133.9 111.1 L132.0 136.0 L138.0 137.0" stroke="#B4BCB7" stroke-width="6" fill="none" stroke-linecap="round" stroke-linejoin="round"/><path d="M113.0 86.0 L127.0 86.0" stroke="#B4BCB7" stroke-width="6" fill="none" stroke-linecap="round" stroke-linejoin="round"/><path d="M120.0 50.0 L120.0 86.0" stroke="#B4BCB7" stroke-width="7.5" fill="none" stroke-linecap="round" stroke-linejoin="round"/><path d="M107.0 52.0 L133.0 52.0" stroke="#B4BCB7" stroke-width="6" fill="none" stroke-linecap="round" stroke-linejoin="round"/><path d="M107.0 52.0 L86.2 54.9 L84.0 36.0" stroke="#B4BCB7" stroke-width="6" fill="none" stroke-linecap="round" stroke-linejoin="round"/><path d="M133.0 52.0 L153.8 54.9 L156.0 36.0" stroke="#B4BCB7" stroke-width="6" fill="none" stroke-linecap="round" stroke-linejoin="round"/><circle cx="120.0" cy="38.0" r="7.5" fill="#B4BCB7"/></g><path d="M117 94l6 6-6 6" stroke="#636B67" stroke-width="2" fill="none" stroke-linecap="round" stroke-linejoin="round"/><g transform="translate(178.0 141) scale(0.8) translate(-120 -141)"><path d="M98.0 96.0 L142.0 96.0" stroke="#636B67" stroke-width="5" fill="none" stroke-linecap="round" stroke-linejoin="round"/><path d="M120.0 96.0 L120.0 140.0" stroke="#636B67" stroke-width="4" fill="none" stroke-linecap="round" stroke-linejoin="round"/><path d="M113.0 86.0 L106.1 111.1 L108.0 136.0 L102.0 137.0" stroke="#18201C" stroke-width="6" fill="none" stroke-linecap="round" stroke-linejoin="round"/><path d="M127.0 86.0 L133.9 111.1 L132.0 136.0 L138.0 137.0" stroke="#18201C" stroke-width="6" fill="none" stroke-linecap="round" stroke-linejoin="round"/><path d="M113.0 86.0 L127.0 86.0" stroke="#18201C" stroke-width="6" fill="none" stroke-linecap="round" stroke-linejoin="round"/><path d="M120.0 50.0 L120.0 86.0" stroke="#18201C" stroke-width="7.5" fill="none" stroke-linecap="round" stroke-linejoin="round"/><path d="M107.0 52.0 L133.0 52.0" stroke="#18201C" stroke-width="6" fill="none" stroke-linecap="round" stroke-linejoin="round"/><path d="M107.0 52.0 L100.1 71.9 L115.0 60.0" stroke="#18201C" stroke-width="6" fill="none" stroke-linecap="round" stroke-linejoin="round"/><path d="M133.0 52.0 L139.9 71.9 L125.0 60.0" stroke="#18201C" stroke-width="6" fill="none" stroke-linecap="round" stroke-linejoin="round"/><circle cx="120.0" cy="38.0" r="7.5" fill="#18201C"/></g></svg>