<svg xmlns="http://www.w3.org/2000/svg" viewBox="0 0 240 160" role="img" aria-label="Goblet Squat"><title>Goblet Squat</title><path d="M12 141H228" stroke="#E1E6E3" stroke-width="2" stroke-linecap="round"/><g transform="translate(62.0 141) scale(0.8) translate(-120 -141)"><path d="M122.0 86.0 L127.9 111.3 L124.0 136.0 L133.0 136.0" stroke="#B4BCB7" stroke-width="6" fill="none" stroke-linecap="round" stroke-linejoin="round"/><path d="M122.0 86.0 L122.0 50.0" stroke="#B4BCB7" stroke-width="7.5" fill="none" stroke-linecap="round" stroke-linejoin="round"/><path d="M122.0 50.0 L139.6 61.4 L133.3 43.5" stroke="#B4BCB7" stroke-width="6" fill="none" stroke-linecap="round" stroke-linejoin="round"/><circle cx="122.0" cy="39.0" r="7.5" fill="#B4BCB7"/><circle cx="133.3" cy="43.5" r="8" fill="#B4BCB7"/><path d="M128.3 39.5 V34.5 a5 5 0 0 1 10 0 V39.5" stroke="#B4BCB7" stroke-width="3" fill="none"/></g><path d="M117 94l6 6-6 6" stroke="#636B67" stroke-width="2" fill="none" stroke-linecap="round" stroke-linejoin="round"/><g transform="translate(178.0 141) scale(0.8) translate(-120 -141)"><path d="M102.0 112.0 L128.0 111.3 L124.0 136.0 L133.0 136.0" stroke="#18201C" stroke-width="6" fill="none" stroke-linecap="round" stroke-linejoin="round"/><path d="M102.0 112.0 L117.8 79.6" stroke="#18201C" stroke-width="7.5" fill="none" stroke-linecap="round" stroke-linejoin="round"/><path d="M117.8 79.6 L128.6 97.6 L130.7 78.7" stroke="#18201C" stroke-width="6" fill="none" stroke-linecap="round" stroke-linejoin="round"/><circle cx="122.6" cy="69.8" r="7.5" fill="#18201C"/><circle cx="130.7" cy="78.7" r="8" fill="#636B67"/><path d="M125.7 74.7 V69.7 a5 5 0 0 1 10 0 V74.7" stroke="#636B67" stroke-width="3" fill="none"/></g></svg>