<svg xmlns="http://www.w3.org/2000/svg" viewBox="0 0 240 160" role="img" aria-label="Hackenschmidt-Kniebeuge"><title>Hackenschmidt-Kniebeuge</title><path d="M12 141H228" stroke="#E1E6E3" stroke-width="2" stroke-linecap="round"/><g transform="translate(62.0 141) scale(0.8) translate(-120 -141)"><path d="M107.1 95.7 L93.6 45.5" stroke="#B4BCB7" stroke-width="6" fill="none" stroke-linecap="round" stroke-linejoin="round"/><path d="M107.1 95.7 L103.1 140.0" stroke="#B4BCB7" stroke-width="4" fill="none" stroke-linecap="round" stroke-linejoin="round"/><path d="M126.0 140.0 L160.0 128.0" stroke="#B4BCB7" stroke-width="4" fill="none" stroke-linecap="round" stroke-linejoin="round"/><path d="M112.0 86.0 L127.1 107.2 L142.0 130.0 L151.0 130.0" stroke="#B4BCB7" stroke-width="6" fill="none" stroke-linecap="round" stroke-linejoin="round"/><path d="M112.0 86.0 L102.7 51.2" stroke="#B4BCB7" stroke-width="7.5" fill="none" stroke-linecap="round" stroke-linejoin="round"/><path d="M102.7 51.2 L109.3 71.2 L107.7 52.2" stroke="#B4BCB7" stroke-width="6" fill="none" stroke-linecap="round" stroke-linejoin="round"/><circle cx="99.8" cy="40.6" r="7.5" fill="#B4BCB7"/></g><path d="M117 94l6 6-6 6" stroke="#636B67" stroke-width="2" fill="none" stroke-linecap="round" stroke-linejoin="round"/><g transform="translate(178.0 141) scale(0.8) translate(-120 -141)"><path d="M107.1 95.7 L93.6 45.5" stroke="#636B67" stroke-width="6" fill="none" stroke-linecap="round" stroke-linejoin="round"/><path d="M107.1 95.7 L103.1 140.0" stroke="#636B67" stroke-width="4" fill="none" stroke-linecap="round" stroke-linejoin="round"/><path d="M126.0 140.0 L160.0 128.0" stroke="#636B67" stroke-width="4" fill="none" stroke-linecap="round" stroke-linejoin="round"/><path d="M117.7 107.3 L143.6 105.1 L142.0 130.0 L151.0 130.0" stroke="#18201C" stroke-width="6" fill="none" stroke-linecap="round" stroke-linejoin="round"/><path d="M117.7 107.3 L108.4 72.5" stroke="#18201C" stroke-width="7.5" fill="none" stroke-linecap="round" stroke-linejoin="round"/><path d="M108.4 72.5 L115.0 92.4 L113.4 73.5" stroke="#18201C" stroke-width="6" fill="none" stroke-linecap="round" stroke-linejoin="round"/><circle cx="105.5" cy="61.9" r="7.5" fill="#18201C"/></g></svg>