<svg xmlns="http://www.w3.org/2000/svg" viewBox="0 0 240 160" role="img" aria-label="Kabelzug-Fliegende"><title>Kabelzug-Fliegende</title><path d="M12 141H228" stroke="#E1E6E3" stroke-width="2" stroke-linecap="round"/><g transform="translate(62.0 141) scale(0.8) translate(-120 -141)"><path d="M66.0 24.0 L66.0 140.0" stroke="#B4BCB7" stroke-width="3" fill="none" stroke-linecap="round" stroke-linejoin="round"/><circle cx="68.0" cy="30.0" r="3.5" fill="none" stroke="#B4BCB7" stroke-width="2.5"/><path d="M174.0 24.0 L174.0 140.0" stroke="#B4BCB7" stroke-width="3" fill="none" stroke-linecap="round" stroke-linejoin="round"/><circle cx="172.0" cy="30.0" r="3.5" fill="none" stroke="#B4BCB7" stroke-width="2.5"/><path d="M68.0 30.0 L86.0 44.0" stroke="#B4BCB7" stroke-width="1.5" fill="none" stroke-linecap="round" stroke-linejoin="round"/><path d="M172.0 30.0 L154.0 44.0" stroke="#B4BCB7" stroke-width="1.5" fill="none" stroke-linecap="round" stroke-linejoin="round"/><path d="M113.0 86.0 L106.7 111.2 L110.0 136.0 L104.0 137.0" stroke="#B4BCB7" stroke-width="6" fill="none" stroke-linecap="round" stroke-linejoin="round"/><path d="M127.0 86.0 L133.3 111.2 L130.0 136.0 L136.0 137.0" stroke="#B4BCB7" stroke-width="6" fill="none" stroke-linecap="round" stroke-linejoin="round"/><path d="M113.0 86.0 L127.0 86.0" stroke="#B4BCB7" stroke-width="6" fill="none" stroke-linecap="round" stroke-linejoin="round"/><path d="M120.0 50.0 L120.0 86.0" stroke="#B4BCB7" stroke-width="7.5" fill="none" stroke-linecap="round" stroke-linejoin="round"/><path d="M107.0 52.0 L133.0 52.0" stroke="#B4BCB7" stroke-width="6" fill="none" stroke-linecap="round" stroke-linejoin="round"/><path d="M107.0 52.0 L89.0 62.8 L86.0 44.0" stroke="#B4BCB7" stroke-width="6" fill="none" stroke-linecap="round" stroke-linejoin="round"/><path d="M133.0 52.0 L151.0 62.8 L154.0 44.0" stroke="#B4BCB7" stroke-width="6" fill="none" stroke-linecap="round" stroke-linejoin="round"/><circle cx="120.0" cy="38.0" r="7.5" fill="#B4BCB7"/></g><path d="M117 94l6 6-6 6" stroke="#636B67" stroke-width="2" fill="none" stroke-linecap="round" stroke-linejoin="round"/><g transform="translate(178.0 141) scale(0.8) translate(-120 -141)"><path d="M66.0 24.0 L66.0 140.0" stroke="#636B67" stroke-width="3" fill="none" stroke-linecap="round" stroke-linejoin="round"/><circle cx="68.0" cy="30.0" r="3.5" fill="none" stroke="#636B67" stroke-width="2.5"/><path d="M174.0 24.0 L174.0 140.0" stroke="#636B67" stroke-width="3" fill="none" stroke-linecap="round" stroke-linejoin="round"/><circle cx="172.0" cy="30.0" r="3.5" fill="none" stroke="#636B67" stroke-width="2.5"/><path d="M68.0 30.0 L114.0 96.0" stroke="#636B67" stroke-width="1.5" fill="none" stroke-linecap="round" stroke-linejoin="round"/><path d="M172.0 30.0 L126.0 96.0" stroke="#636B67" stroke-width="1.5" fill="none" stroke-linecap="round" stroke-linejoin="round"/><path d="M113.0 86.0 L106.7 111.2 L110.0 136.0 L104.0 137.0" stroke="#18201C" stroke-width="6" fill="none" stroke-linecap="round" stroke-linejoin="round"/><path d="M127.0 86.0 L133.3 111.2 L130.0 136.0 L136.0 137.0" stroke="#18201C" stroke-width="6" fill="none" stroke-linecap="round" stroke-linejoin="round"/><path d="M113.0 86.0 L127.0 86.0" stroke="#18201C" stroke-width="6" fill="none" stroke-linecap="round" stroke-linejoin="round"/><path d="M120.0 50.0 L120.0 86.0" stroke="#18201C" stroke-width="7.5" fill="none" stroke-linecap="round" stroke-linejoin="round"/><path d="M107.0 52.0 L133.0 52.0" stroke="#18201C" stroke-width="6" fill="none" stroke-linecap="round" stroke-linejoin="round"/><path d="M107.0 52.0 L109.9 72.8 L114.0 96.0" stroke="#18201C" stroke-width="6" fill="none" stroke-linecap="round" stroke-linejoin="round"/><path d="M133.0 52.0 L130.1 72.8 L126.0 96.0" stroke="#18201C" stroke-width="6" fill="none" stroke-linecap="round" stroke-linejoin="round"/><circle cx="120.0" cy="38.0" r="7.5" fill="#18201C"/></g></svg>