<svg xmlns="http://www.w3.org/2000/svg" viewBox="0 0 240 160" role="img" aria-label="Kickback am Kabel"><title>Kickback am Kabel</title><path d="M12 141H228" stroke="#E1E6E3" stroke-width="2" stroke-linecap="round"/><g transform="translate(62.0 141) scale(0.8) translate(-120 -141)"><path d="M64.0 112.0 L64.0 140.0" stroke="#B4BCB7" stroke-width="3" fill="none" stroke-linecap="round" stroke-linejoin="round"/><circle cx="66.0" cy="132.0" r="3.5" fill="none" stroke="#B4BCB7" stroke-width="2.5"/><path d="M66.0 132.0 L112.0 132.0" stroke="#B4BCB7" stroke-width="1.5" fill="none" stroke-linecap="round" stroke-linejoin="round"/><path d="M118.0 86.0 L124.3 111.2 L121.0 136.0 L130.0 136.0" stroke="#B4BCB7" stroke-width="6" fill="none" stroke-linecap="round" stroke-linejoin="round"/><path d="M118.0 86.0 L125.4 110.9 L112.0 132.0" stroke="#B4BCB7" stroke-width="6" fill="none" stroke-linecap="round" stroke-linejoin="round"/><path d="M118.0 86.0 L121.8 50.2" stroke="#B4BCB7" stroke-width="7.5" fill="none" stroke-linecap="round" stroke-linejoin="round"/><path d="M121.8 50.2 L130.1 69.5 L126.0 88.0" stroke="#B4BCB7" stroke-width="6" fill="none" stroke-linecap="round" stroke-linejoin="round"/><circle cx="122.9" cy="39.3" r="7.5" fill="#B4BCB7"/></g><path d="M117 94l6 6-6 6" stroke="#636B67" stroke-width="2" fill="none" stroke-linecap="round" stroke-linejoin="round"/><g transform="translate(178.0 141) scale(0.8) translate(-120 -141)"><path d="M64.0 112.0 L64.0 140.0" stroke="#636B67" stroke-width="3" fill="none" stroke-linecap="round" stroke-linejoin="round"/><circle cx="66.0" cy="132.0" r="3.5" fill="none" stroke="#636B67" stroke-width="2.5"/><path d="M66.0 132.0 L76.0 112.0" stroke="#636B67" stroke-width="1.5" fill="none" stroke-linecap="round" stroke-linejoin="round"/><path d="M118.0 86.0 L124.3 111.2 L121.0 136.0 L130.0 136.0" stroke="#18201C" stroke-width="6" fill="none" stroke-linecap="round" stroke-linejoin="round"/><path d="M118.0 86.0 L99.9 104.7 L76.0 112.0" stroke="#18201C" stroke-width="6" fill="none" stroke-linecap="round" stroke-linejoin="round"/><path d="M118.0 86.0 L121.8 50.2" stroke="#18201C" stroke-width="7.5" fill="none" stroke-linecap="round" stroke-linejoin="round"/><path d="M121.8 50.2 L130.1 69.5 L126.0 88.0" stroke="#18201C" stroke-width="6" fill="none" stroke-linecap="round" stroke-linejoin="round"/><circle cx="122.9" cy="39.3" r="7.5" fill="#18201C"/></g></svg>