<svg xmlns="http://www.w3.org/2000/svg" viewBox="0 0 240 160" role="img" aria-label="Kreuzheben"><title>Kreuzheben</title><path d="M12 141H228" stroke="#E1E6E3" stroke-width="2" stroke-linecap="round"/><g transform="translate(62.0 141) scale(0.8) translate(-120 -141)"><circle cx="133.1" cy="127.0" r="13" fill="#B4BCB7"/><circle cx="133.1" cy="127.0" r="2.5" fill="#FFFFFF"/><path d="M100.0 100.0 L123.6 111.0 L124.0 136.0 L133.0 136.0" stroke="#B4BCB7" stroke-width="6" fill="none" stroke-linecap="round" stroke-linejoin="round"/><path d="M100.0 100.0 L132.6 84.8" stroke="#B4BCB7" stroke-width="7.5" fill="none" stroke-linecap="round" stroke-linejoin="round"/><path d="M132.6 84.8 L136.0 105.5 L133.1 124.3" stroke="#B4BCB7" stroke-width="6" fill="none" stroke-linecap="round" stroke-linejoin="round"/><circle cx="142.6" cy="80.1" r="7.5" fill="#B4BCB7"/></g><path d="M117 94l6 6-6 6" stroke="#636B67" stroke-width="2" fill="none" stroke-linecap="round" stroke-linejoin="round"/><g transform="translate(178.0 141) scale(0.8) translate(-120 -141)"><circle cx="124.0" cy="94.0" r="13" fill="#636B67"/><circle cx="124.0" cy="94.0" r="2.5" fill="#FFFFFF"/><path d="M121.0 86.0 L126.5 111.4 L122.0 136.0 L131.0 136.0" stroke="#18201C" stroke-width="6" fill="none" stroke-linecap="round" stroke-linejoin="round"/><path d="M121.0 86.0 L121.0 50.0" stroke="#18201C" stroke-width="7.5" fill="none" stroke-linecap="round" stroke-linejoin="round"/><path d="M121.0 50.0 L122.9 70.9 L124.0 92.0" stroke="#18201C" stroke-width="6" fill="none" stroke-linecap="round" stroke-linejoin="round"/><circle cx="121.0" cy="39.0" r="7.5" fill="#18201C"/></g></svg>