<svg xmlns="http://www.w3.org/2000/svg" viewBox="0 0 240 160" role="img" aria-label="Nordic Hamstring Curl"><title>Nordic Hamstring Curl</title><path d="M12 141H228" stroke="#E1E6E3" stroke-width="2" stroke-linecap="round"/><g transform="translate(62.0 141) scale(0.8) translate(-120 -141)"><circle cx="86.0" cy="128.0" r="5" fill="#B4BCB7"/><path d="M110.0 109.0 L110.0 135.0 L85.0 135.0 L78.0 138.0" stroke="#B4BCB7" stroke-width="6" fill="none" stroke-linecap="round" stroke-linejoin="round"/><path d="M110.0 109.0 L110.0 73.0" stroke="#B4BCB7" stroke-width="7.5" fill="none" stroke-linecap="round" stroke-linejoin="round"/><path d="M110.0 73.0 L107.1 93.8 L126.0 96.0" stroke="#B4BCB7" stroke-width="6" fill="none" stroke-linecap="round" stroke-linejoin="round"/><circle cx="110.0" cy="62.0" r="7.5" fill="#B4BCB7"/></g><path d="M117 94l6 6-6 6" stroke="#636B67" stroke-width="2" fill="none" stroke-linecap="round" stroke-linejoin="round"/><g transform="translate(178.0 141) scale(0.8) translate(-120 -141)"><circle cx="86.0" cy="128.0" r="5" fill="#636B67"/><path d="M127.4 115.7 L110.0 135.0 L85.0 135.0 L78.0 138.0" stroke="#18201C" stroke-width="6" fill="none" stroke-linecap="round" stroke-linejoin="round"/><path d="M127.4 115.7 L151.5 88.9" stroke="#18201C" stroke-width="7.5" fill="none" stroke-linecap="round" stroke-linejoin="round"/><path d="M151.5 88.9 L162.0 107.1 L164.0 126.0" stroke="#18201C" stroke-width="6" fill="none" stroke-linecap="round" stroke-linejoin="round"/><circle cx="158.8" cy="80.8" r="7.5" fill="#18201C"/></g></svg>