<svg xmlns="http://www.w3.org/2000/svg" viewBox="0 0 240 160" role="img" aria-label="Seitheben"><title>Seitheben</title><path d="M12 141H228" stroke="#E1E6E3" stroke-width="2" stroke-linecap="round"/><g transform="translate(62.0 141) scale(0.8) translate(-120 -141)"><path d="M113.0 86.0 L107.1 111.3 L111.0 136.0 L105.0 137.0" stroke="#B4BCB7" stroke-width="6" fill="none" stroke-linecap="round" stroke-linejoin="round"/><path d="M127.0 86.0 L132.9 111.3 L129.0 136.0 L135.0 137.0" stroke="#B4BCB7" stroke-width="6" fill="none" stroke-linecap="round" stroke-linejoin="round"/><path d="M113.0 86.0 L127.0 86.0" stroke="#B4BCB7" stroke-width="6" fill="none" stroke-linecap="round" stroke-linejoin="round"/><path d="M120.0 50.0 L120.0 86.0" stroke="#B4BCB7" stroke-width="7.5" fill="none" stroke-linecap="round" stroke-linejoin="round"/><path d="M107.0 52.0 L133.0 52.0" stroke="#B4BCB7" stroke-width="6" fill="none" stroke-linecap="round" stroke-linejoin="round"/><path d="M107.0 52.0 L103.6 72.7 L101.0 94.0" stroke="#B4BCB7" stroke-width="6" fill="none" stroke-linecap="round" stroke-linejoin="round"/><path d="M133.0 52.0 L136.4 72.7 L139.0 94.0" stroke="#B4BCB7" stroke-width="6" fill="none" stroke-linecap="round" stroke-linejoin="round"/><circle cx="120.0" cy="38.0" r="7.5" fill="#B4BCB7"/><circle cx="101.0" cy="94.0" r="7" fill="#B4BCB7"/><circle cx="101.0" cy="94.0" r="1.8" fill="#FFFFFF"/><circle cx="139.0" cy="94.0" r="7" fill="#B4BCB7"/><circle cx="139.0" cy="94.0" r="1.8" fill="#FFFFFF"/></g><path d="M117 94l6 6-6 6" stroke="#636B67" stroke-width="2" fill="none" stroke-linecap="round" stroke-linejoin="round"/><g transform="translate(178.0 141) scale(0.8) translate(-120 -141)"><path d="M113.0 86.0 L107.1 111.3 L111.0 136.0 L105.0 137.0" stroke="#18201C" stroke-width="6" fill="none" stroke-linecap="round" stroke-linejoin="round"/><path d="M127.0 86.0 L132.9 111.3 L129.0 136.0 L135.0 137.0" stroke="#18201C" stroke-width="6" fill="none" stroke-linecap="round" stroke-linejoin="round"/><path d="M113.0 86.0 L127.0 86.0" stroke="#18201C" stroke-width="6" fill="none" stroke-linecap="round" stroke-linejoin="round"/><path d="M120.0 50.0 L120.0 86.0" stroke="#18201C" stroke-width="7.5" fill="none" stroke-linecap="round" stroke-linejoin="round"/><path d="M107.0 52.0 L133.0 52.0" stroke="#18201C" stroke-width="6" fill="none" stroke-linecap="round" stroke-linejoin="round"/><path d="M107.0 52.0 L86.9 58.1 L68.0 60.0" stroke="#18201C" stroke-width="6" fill="none" stroke-linecap="round" stroke-linejoin="round"/><path d="M133.0 52.0 L153.1 58.1 L172.0 60.0" stroke="#18201C" stroke-width="6" fill="none" stroke-linecap="round" stroke-linejoin="round"/><circle cx="120.0" cy="38.0" r="7.5" fill="#18201C"/><circle cx="68.0" cy="60.0" r="7" fill="#636B67"/><circle cx="68.0" cy="60.0" r="1.8" fill="#FFFFFF"/><circle cx="172.0" cy="60.0" r="7" fill="#636B67"/><circle cx="172.0" cy="60.0" r="1.8" fill="#FFFFFF"/></g></svg>