<svg xmlns="http://www.w3.org/2000/svg" viewBox="0 0 240 160" role="img" aria-label="Step-up"><title>Step-up</title><path d="M12 141H228" stroke="#E1E6E3" stroke-width="2" stroke-linecap="round"/><g transform="translate(62.0 141) scale(0.8) translate(-120 -141)"><rect x="124" y="108" width="46" height="32" rx="2" fill="none" stroke="#B4BCB7" stroke-width="4"/><path d="M108.0 86.0 L111.9 111.7 L106.0 136.0 L115.0 136.0" stroke="#B4BCB7" stroke-width="6" fill="none" stroke-linecap="round" stroke-linejoin="round"/><path d="M108.0 86.0 L133.3 79.9 L140.0 104.0 L149.0 104.0" stroke="#B4BCB7" stroke-width="6" fill="none" stroke-linecap="round" stroke-linejoin="round"/><path d="M108.0 86.0 L106.7 50.0" stroke="#B4BCB7" stroke-width="7.5" fill="none" stroke-linecap="round" stroke-linejoin="round"/><path d="M106.7 50.0 L107.8 71.0 L108.0 90.0" stroke="#B4BCB7" stroke-width="6" fill="none" stroke-linecap="round" stroke-linejoin="round"/><circle cx="106.4" cy="39.0" r="7.5" fill="#B4BCB7"/></g><path d="M117 94l6 6-6 6" stroke="#636B67" stroke-width="2" fill="none" stroke-linecap="round" stroke-linejoin="round"/><g transform="translate(178.0 141) scale(0.8) translate(-120 -141)"><rect x="124" y="108" width="46" height="32" rx="2" fill="none" stroke="#636B67" stroke-width="4"/><path d="M146.0 56.0 L154.3 80.6 L132.0 92.0" stroke="#18201C" stroke-width="6" fill="none" stroke-linecap="round" stroke-linejoin="round"/><path d="M146.0 56.0 L155.6 80.2 L148.0 104.0 L157.0 104.0" stroke="#18201C" stroke-width="6" fill="none" stroke-linecap="round" stroke-linejoin="round"/><path d="M146.0 56.0 L146.0 20.0" stroke="#18201C" stroke-width="7.5" fill="none" stroke-linecap="round" stroke-linejoin="round"/><path d="M146.0 20.0 L147.0 41.0 L147.0 60.0" stroke="#18201C" stroke-width="6" fill="none" stroke-linecap="round" stroke-linejoin="round"/><circle cx="146.0" cy="9.0" r="7.5" fill="#18201C"/></g></svg>