<svg xmlns="http://www.w3.org/2000/svg" viewBox="0 0 240 160" role="img" aria-label="Trizeps-Kickback"><title>Trizeps-Kickback</title><path d="M12 141H228" stroke="#E1E6E3" stroke-width="2" stroke-linecap="round"/><g transform="translate(62.0 141) scale(0.8) translate(-120 -141)"><path d="M106.0 92.0 L123.2 111.5 L118.0 136.0 L127.0 136.0" stroke="#B4BCB7" stroke-width="6" fill="none" stroke-linecap="round" stroke-linejoin="round"/><path d="M106.0 92.0 L139.8 79.7" stroke="#B4BCB7" stroke-width="7.5" fill="none" stroke-linecap="round" stroke-linejoin="round"/><path d="M139.8 79.7 L119.3 84.1 L121.0 103.0" stroke="#B4BCB7" stroke-width="6" fill="none" stroke-linecap="round" stroke-linejoin="round"/><circle cx="150.2" cy="75.9" r="7.5" fill="#B4BCB7"/><circle cx="121.0" cy="103.0" r="7" fill="#B4BCB7"/><circle cx="121.0" cy="103.0" r="1.8" fill="#FFFFFF"/></g><path d="M117 94l6 6-6 6" stroke="#636B67" stroke-width="2" fill="none" stroke-linecap="round" stroke-linejoin="round"/><g transform="translate(178.0 141) scale(0.8) translate(-120 -141)"><path d="M106.0 92.0 L123.2 111.5 L118.0 136.0 L127.0 136.0" stroke="#18201C" stroke-width="6" fill="none" stroke-linecap="round" stroke-linejoin="round"/><path d="M106.0 92.0 L139.8 79.7" stroke="#18201C" stroke-width="7.5" fill="none" stroke-linecap="round" stroke-linejoin="round"/><path d="M139.8 79.7 L119.9 86.4 L101.0 88.0" stroke="#18201C" stroke-width="6" fill="none" stroke-linecap="round" stroke-linejoin="round"/><circle cx="150.2" cy="75.9" r="7.5" fill="#18201C"/><circle cx="101.0" cy="88.0" r="7" fill="#636B67"/><circle cx="101.0" cy="88.0" r="1.8" fill="#FFFFFF"/></g></svg>