<svg xmlns="http://www.w3.org/2000/svg" viewBox="0 0 240 160" role="img" aria-label="Vorgebeugtes Seitheben"><title>Vorgebeugtes Seitheben</title><path d="M12 141H228" stroke="#E1E6E3" stroke-width="2" stroke-linecap="round"/><g transform="translate(62.0 141) scale(0.8) translate(-120 -141)"><path d="M113.0 86.0 L106.7 111.2 L110.0 136.0 L104.0 137.0" stroke="#B4BCB7" stroke-width="6" fill="none" stroke-linecap="round" stroke-linejoin="round"/><path d="M127.0 86.0 L133.3 111.2 L130.0 136.0 L136.0 137.0" stroke="#B4BCB7" stroke-width="6" fill="none" stroke-linecap="round" stroke-linejoin="round"/><path d="M113.0 86.0 L127.0 86.0" stroke="#B4BCB7" stroke-width="6" fill="none" stroke-linecap="round" stroke-linejoin="round"/><path d="M120.0 72.0 L120.0 86.0" stroke="#B4BCB7" stroke-width="7.5" fill="none" stroke-linecap="round" stroke-linejoin="round"/><path d="M107.0 74.0 L133.0 74.0" stroke="#B4BCB7" stroke-width="6" fill="none" stroke-linecap="round" stroke-linejoin="round"/><path d="M107.0 74.0 L101.3 94.2 L108.0 112.0" stroke="#B4BCB7" stroke-width="6" fill="none" stroke-linecap="round" stroke-linejoin="round"/><path d="M133.0 74.0 L138.7 94.2 L132.0 112.0" stroke="#B4BCB7" stroke-width="6" fill="none" stroke-linecap="round" stroke-linejoin="round"/><circle cx="120.0" cy="60.0" r="7.5" fill="#B4BCB7"/><circle cx="108.0" cy="112.0" r="7" fill="#B4BCB7"/><circle cx="108.0" cy="112.0" r="1.8" fill="#FFFFFF"/><circle cx="132.0" cy="112.0" r="7" fill="#B4BCB7"/><circle cx="132.0" cy="112.0" r="1.8" fill="#FFFFFF"/></g><path d="M117 94l6 6-6 6" stroke="#636B67" stroke-width="2" fill="none" stroke-linecap="round" stroke-linejoin="round"/><g transform="translate(178.0 141) scale(0.8) translate(-120 -141)"><path d="M113.0 86.0 L106.7 111.2 L110.0 136.0 L104.0 137.0" stroke="#18201C" stroke-width="6" fill="none" stroke-linecap="round" stroke-linejoin="round"/><path d="M127.0 86.0 L133.3 111.2 L130.0 136.0 L136.0 137.0" stroke="#18201C" stroke-width="6" fill="none" stroke-linecap="round" stroke-linejoin="round"/><path d="M113.0 86.0 L127.0 86.0" stroke="#18201C" stroke-width="6" fill="none" stroke-linecap="round" stroke-linejoin="round"/><path d="M120.0 72.0 L120.0 86.0" stroke="#18201C" stroke-width="7.5" fill="none" stroke-linecap="round" stroke-linejoin="round"/><path d="M107.0 74.0 L133.0 74.0" stroke="#18201C" stroke-width="6" fill="none" stroke-linecap="round" stroke-linejoin="round"/><path d="M107.0 74.0 L86.6 68.8 L70.0 78.0" stroke="#18201C" stroke-width="6" fill="none" stroke-linecap="round" stroke-linejoin="round"/><path d="M133.0 74.0 L153.4 68.8 L170.0 78.0" stroke="#18201C" stroke-width="6" fill="none" stroke-linecap="round" stroke-linejoin="round"/><circle cx="120.0" cy="60.0" r="7.5" fill="#18201C"/><circle cx="70.0" cy="78.0" r="7" fill="#636B67"/><circle cx="70.0" cy="78.0" r="1.8" fill="#FFFFFF"/><circle cx="170.0" cy="78.0" r="7" fill="#636B67"/><circle cx="170.0" cy="78.0" r="1.8" fill="#FFFFFF"/></g></svg>