<svg xmlns="http://www.w3.org/2000/svg" viewBox="0 0 240 160" role="img" aria-label="Wadenheben sitzend"><title>Wadenheben sitzend</title><path d="M12 141H228" stroke="#E1E6E3" stroke-width="2" stroke-linecap="round"/><g transform="translate(62.0 141) scale(0.8) translate(-120 -141)"><path d="M86.0 110.0 L114.0 110.0" stroke="#B4BCB7" stroke-width="5" fill="none" stroke-linecap="round" stroke-linejoin="round"/><path d="M100.0 110.0 L100.0 140.0" stroke="#B4BCB7" stroke-width="4" fill="none" stroke-linecap="round" stroke-linejoin="round"/><rect x="126" y="128" width="24" height="12" rx="2" fill="none" stroke="#B4BCB7" stroke-width="4"/><path d="M116.0 96.0 L138.0 96.0" stroke="#B4BCB7" stroke-width="6" fill="none" stroke-linecap="round" stroke-linejoin="round"/><path d="M100.0 104.0 L125.9 106.0 L126.0 131.0 L134.0 126.0" stroke="#B4BCB7" stroke-width="6" fill="none" stroke-linecap="round" stroke-linejoin="round"/><path d="M100.0 104.0 L100.0 68.0" stroke="#B4BCB7" stroke-width="7.5" fill="none" stroke-linecap="round" stroke-linejoin="round"/><path d="M100.0 68.0 L112.2 85.1 L124.0 100.0" stroke="#B4BCB7" stroke-width="6" fill="none" stroke-linecap="round" stroke-linejoin="round"/><circle cx="100.0" cy="57.0" r="7.5" fill="#B4BCB7"/></g><path d="M117 94l6 6-6 6" stroke="#636B67" stroke-width="2" fill="none" stroke-linecap="round" stroke-linejoin="round"/><g transform="translate(178.0 141) scale(0.8) translate(-120 -141)"><path d="M86.0 110.0 L114.0 110.0" stroke="#636B67" stroke-width="5" fill="none" stroke-linecap="round" stroke-linejoin="round"/><path d="M100.0 110.0 L100.0 140.0" stroke="#636B67" stroke-width="4" fill="none" stroke-linecap="round" stroke-linejoin="round"/><rect x="126" y="128" width="24" height="12" rx="2" fill="none" stroke="#636B67" stroke-width="4"/><path d="M116.0 96.0 L138.0 96.0" stroke="#636B67" stroke-width="6" fill="none" stroke-linecap="round" stroke-linejoin="round"/><path d="M100.0 104.0 L124.8 96.2 L128.0 121.0 L134.0 126.0" stroke="#18201C" stroke-width="6" fill="none" stroke-linecap="round" stroke-linejoin="round"/><path d="M100.0 104.0 L100.0 68.0" stroke="#18201C" stroke-width="7.5" fill="none" stroke-linecap="round" stroke-linejoin="round"/><path d="M100.0 68.0 L112.2 85.1 L124.0 100.0" stroke="#18201C" stroke-width="6" fill="none" stroke-linecap="round" stroke-linejoin="round"/><circle cx="100.0" cy="57.0" r="7.5" fill="#18201C"/></g></svg>