<svg xmlns="http://www.w3.org/2000/svg" viewBox="0 0 240 160" role="img" aria-label="Wadenheben"><title>Wadenheben</title><path d="M12 141H228" stroke="#E1E6E3" stroke-width="2" stroke-linecap="round"/><g transform="translate(62.0 141) scale(0.8) translate(-120 -141)"><rect x="128" y="126" width="32" height="14" rx="2" fill="none" stroke="#B4BCB7" stroke-width="4"/><path d="M121.0 80.0 L126.5 105.4 L122.0 130.0 L131.0 124.0" stroke="#B4BCB7" stroke-width="6" fill="none" stroke-linecap="round" stroke-linejoin="round"/><path d="M121.0 80.0 L121.0 44.0" stroke="#B4BCB7" stroke-width="7.5" fill="none" stroke-linecap="round" stroke-linejoin="round"/><path d="M121.0 44.0 L122.0 65.0 L122.0 84.0" stroke="#B4BCB7" stroke-width="6" fill="none" stroke-linecap="round" stroke-linejoin="round"/><circle cx="121.0" cy="33.0" r="7.5" fill="#B4BCB7"/></g><path d="M117 94l6 6-6 6" stroke="#636B67" stroke-width="2" fill="none" stroke-linecap="round" stroke-linejoin="round"/><g transform="translate(178.0 141) scale(0.8) translate(-120 -141)"><rect x="128" y="126" width="32" height="14" rx="2" fill="none" stroke="#636B67" stroke-width="4"/><path d="M122.0 68.0 L127.9 93.3 L124.0 118.0 L131.0 124.0" stroke="#18201C" stroke-width="6" fill="none" stroke-linecap="round" stroke-linejoin="round"/><path d="M122.0 68.0 L122.0 32.0" stroke="#18201C" stroke-width="7.5" fill="none" stroke-linecap="round" stroke-linejoin="round"/><path d="M122.0 32.0 L123.0 53.0 L123.0 72.0" stroke="#18201C" stroke-width="6" fill="none" stroke-linecap="round" stroke-linejoin="round"/><circle cx="122.0" cy="21.0" r="7.5" fill="#18201C"/></g></svg>